HIERARCHY
ROOT SpineBase
{
  OFFSET 0.000000 0.000000 0.000000
  CHANNELS 6 Xposition Yposition Zposition Zrotation Xrotation Yrotation
  JOINT SpineMid
  {
    OFFSET 0.000000 28.564124 0.000000
    CHANNELS 3 Zrotation Xrotation Yrotation
    JOINT SpineShoulder
    {
      OFFSET 0.000117 21.295697 -0.866280
      CHANNELS 3 Zrotation Xrotation Yrotation
      JOINT Neck
      {
        OFFSET -0.002269 7.077101 -0.625954
        CHANNELS 3 Zrotation Xrotation Yrotation
        JOINT Head
        {
          OFFSET 5.843985 11.851035 2.574836
          CHANNELS 3 Zrotation Xrotation Yrotation
          End Site
          {
            OFFSET 0 0 0
          }
        }
      }
      JOINT ShoulderLeft
      {
        OFFSET -8.156573 -3.823915 -12.785536
        CHANNELS 3 Zrotation Xrotation Yrotation
        JOINT ElbowLeft
        {
          OFFSET -6.696918 -22.625670 -7.454482
          CHANNELS 3 Zrotation Xrotation Yrotation
          JOINT WristLeft
          {
            OFFSET 0.233580 -21.845097 -2.471895
            CHANNELS 3 Zrotation Xrotation Yrotation
            JOINT HandLeft
            {
              OFFSET 0.354065 -8.375741 -0.399995
              CHANNELS 3 Zrotation Xrotation Yrotation
              JOINT HandTipLeft
              {
                OFFSET 0.520847 -6.885726 -0.858890
                CHANNELS 3 Zrotation Xrotation Yrotation
                End Site
                {
                  OFFSET 0 0 0
                }
              }
              JOINT ThumbLeft
              {
                OFFSET 2.052382 -0.005233 0.409934
                CHANNELS 3 Zrotation Xrotation Yrotation
                End Site
                {
                  OFFSET 0 0 0
                }
              }
            }
          }
        }
      }
      JOINT ShoulderRight
      {
        OFFSET -11.097287 10.788694 -12.335431
        CHANNELS 3 Zrotation Xrotation Yrotation
        JOINT ElbowRight
        {
          OFFSET 9.588515 -20.168396 10.759642
          CHANNELS 3 Zrotation Xrotation Yrotation
          JOINT WristRight
          {
            OFFSET 6.114605 -23.737136 5.895148
            CHANNELS 3 Zrotation Xrotation Yrotation
            JOINT HandRight
            {
              OFFSET 2.916926 -6.328934 -6.110663
              CHANNELS 3 Zrotation Xrotation Yrotation
              JOINT HandTipRight
              {
                OFFSET 0.509199 -5.518910 1.466206
                CHANNELS 3 Zrotation Xrotation Yrotation
                End Site
                {
                  OFFSET 0 0 0
                }
              }
              JOINT ThumbRight
              {
                OFFSET -1.189320 1.033382 -4.233796
                CHANNELS 3 Zrotation Xrotation Yrotation
                End Site
                {
                  OFFSET 0 0 0
                }
              }
            }
          }
        }
      }
    }
  }
  JOINT HipLeft
  {
    OFFSET 1.069688 1.458971 -10.411743
    CHANNELS 3 Zrotation Xrotation Yrotation
    JOINT KneeLeft
    {
      OFFSET -12.957763 -28.088645 1.359117
      CHANNELS 3 Zrotation Xrotation Yrotation
      JOINT AnkleLeft
      {
        OFFSET -9.702276 -37.564624 8.145193
        CHANNELS 3 Zrotation Xrotation Yrotation
        JOINT FootLeft
        {
          OFFSET -2.792892 -3.732623 6.296585
          CHANNELS 3 Zrotation Xrotation Yrotation
          End Site
          {
            OFFSET 0 0 0
          }
        }
      }
    }
  }
  JOINT HipRight
  {
    OFFSET -1.031294 0.999712 3.637613
    CHANNELS 3 Zrotation Xrotation Yrotation
    JOINT KneeRight
    {
      OFFSET 5.473149 -32.020959 3.901558
      CHANNELS 3 Zrotation Xrotation Yrotation
      JOINT AnkleRight
      {
        OFFSET -11.559230 -36.441648 7.710443
        CHANNELS 3 Zrotation Xrotation Yrotation
        JOINT FootRight
        {
          OFFSET 1.637624 -8.228385 -5.451799
          CHANNELS 3 Zrotation Xrotation Yrotation
          End Site
          {
            OFFSET 0 0 0
          }
        }
      }
    }
  }
}
MOTION
Frames: 10
Frame Time: 0.033333
7.032947 77.551145 317.639010 -1.469047 -2.669240 -94.884516 -0.553771 -0.119386 94.795986 -0.000494 0.290771 -0.070138 -9.627201 1.801430 2.768148 0.000000 0.000000 0.000000 -0.336052 2.306357 0.647675 9.129509 0.432412 -1.265215 -11.735371 7.655277 1.579703 18.425223 -1.224418 -0.181538 0.000000 0.000000 0.000000 0.000000 0.000000 0.000000 1.536592 1.820211 0.112246 -0.000000 0.000000 0.000000 -4.973967 -18.758866 -5.772655 18.010949 -4.961614 3.709591 0.000000 0.000000 0.000000 0.000000 0.000000 0.000000 -8.571609 -5.502810 91.509620 5.089299 -5.346758 2.854258 -6.197669 6.550781 -18.349651 0.000000 0.000000 0.000000 -10.271819 3.576790 96.805291 15.913082 -8.344910 5.393959 -26.599871 -6.877020 -1.576691 0.000000 0.000000 0.000000
8.605270 77.065484 318.034585 -2.237957 -2.018114 -91.049694 -0.491388 0.050096 90.930456 0.054589 0.261644 -0.095373 -7.432497 -1.675468 3.533033 0.000000 0.000000 0.000000 -2.968852 1.136860 1.961774 10.409024 3.091769 -2.384907 -10.837664 6.139722 1.210616 16.720240 0.731685 0.040472 0.000000 0.000000 0.000000 0.000000 0.000000 0.000000 2.119543 1.273155 0.164506 -0.000000 0.000000 0.000000 -8.479491 -28.060410 -9.800315 21.584227 7.714754 2.881030 0.000000 0.000000 0.000000 0.000000 0.000000 0.000000 -8.421335 -4.154980 87.718896 3.534637 -5.250941 2.355472 -0.133368 18.387773 -24.639377 0.000000 0.000000 0.000000 -9.166060 4.732253 93.017597 17.610187 -7.748415 5.757752 -28.468078 -5.255827 -0.957492 0.000000 0.000000 0.000000
10.178574 76.691924 318.373770 -3.007871 -1.240606 -91.076654 -0.460890 0.136544 90.938659 0.080372 0.236575 -0.124534 -4.181129 -5.839180 4.496537 0.000000 0.000000 0.000000 -5.218454 -0.802762 3.199170 11.379441 6.721508 -3.540973 -9.248240 3.838917 0.714641 14.367207 4.628046 0.276328 0.000000 0.000000 0.000000 0.000000 0.000000 0.000000 5.850089 -1.292569 0.985193 -1.735267 0.532730 -0.730336 -14.343581 -36.438917 -15.268183 24.612116 24.214956 1.383386 0.000000 0.000000 0.000000 0.000000 0.000000 0.000000 -7.472550 -3.733313 87.880658 2.157035 -4.835125 1.706611 12.157959 33.179743 -31.615216 0.000000 0.000000 0.000000 -8.266211 5.634580 93.128468 17.500194 -7.245173 5.534548 -28.042014 -8.207412 -2.113292 0.000000 0.000000 0.000000
11.996156 76.243401 318.952672 -4.032897 -0.650100 -86.232493 -0.409827 0.183175 86.066439 0.079315 0.214364 -0.171275 0.949000 -9.691359 5.553589 0.000000 0.000000 0.000000 -7.007401 -3.502168 4.535560 12.398924 11.275904 -4.917573 -8.055261 2.292513 0.330862 12.390651 5.927748 0.776337 0.000000 0.000000 0.000000 0.000000 0.000000 0.000000 6.989726 -2.191823 1.006943 -1.795874 1.388254 -0.480245 -16.737941 -40.372652 -18.296180 27.025702 30.106846 0.239504 0.000000 0.000000 0.000000 0.000000 0.000000 0.000000 -8.180713 -1.902594 82.721458 0.297110 -5.702646 1.512718 31.637878 47.479250 -40.468589 0.000000 0.000000 0.000000 -6.915796 6.174707 88.154468 17.439144 -6.831732 5.193868 -26.043034 -3.211295 -0.756320 0.000000 0.000000 0.000000
13.827946 75.812701 319.631494 -5.280702 -0.196445 -75.863822 -0.292437 0.238700 75.662413 0.108174 0.164995 -0.227788 7.126672 -13.153139 6.861044 0.000000 0.000000 0.000000 -8.129074 -6.701705 5.800956 12.900684 15.968943 -6.226770 -7.015307 3.062628 0.246621 10.453389 8.467731 1.665785 0.000000 0.000000 0.000000 0.000000 0.000000 0.000000 6.114176 -1.588225 0.424608 -1.090530 1.324767 0.061312 -17.360283 -42.750476 -19.083297 28.653154 33.560839 -1.551015 0.000000 0.000000 0.000000 0.000000 0.000000 0.000000 -9.312361 1.875031 71.952780 -2.076325 -7.381559 1.483913 54.655737 57.506300 -49.627139 0.000000 0.000000 0.000000 -5.021058 6.876076 77.560791 17.336649 -6.624676 4.894906 -19.273670 11.474462 -0.196340 0.000000 0.000000 0.000000
15.673997 75.389023 320.389243 -6.387444 0.051514 -59.412151 -0.108198 0.278689 59.175896 0.157389 0.114852 -0.276167 12.892471 -15.893873 8.263789 0.000000 0.000000 0.000000 -9.141676 -10.327910 7.028323 13.559351 21.605216 -7.592564 -5.138581 1.200809 -0.092777 7.553591 10.336345 2.251344 0.000000 0.000000 0.000000 0.000000 0.000000 0.000000 3.280925 0.497425 -0.518874 0.892075 1.909806 1.373190 -18.984120 -46.714258 -21.049913 29.669862 37.280242 -3.517299 0.000000 0.000000 0.000000 0.000000 0.000000 0.000000 -9.289341 7.355514 55.071573 -4.395899 -9.817627 1.590659 63.607837 61.873648 -43.787003 0.000000 0.000000 0.000000 -3.036295 6.769289 60.731680 17.519876 -6.680217 4.677441 -14.337507 20.128793 -0.165888 0.000000 0.000000 0.000000
17.232393 75.056976 321.167948 -7.435902 0.112847 -39.763100 -0.002926 0.227989 39.485016 0.169731 0.083727 -0.328156 17.342114 -17.905196 9.590531 0.000000 0.000000 0.000000 -9.066797 -14.285832 8.061973 13.006834 26.479181 -8.524323 -3.488885 2.344947 0.007916 5.555705 5.614616 2.227361 0.000000 0.000000 0.000000 0.000000 0.000000 0.000000 -0.779308 3.653836 -1.509598 3.123246 1.666372 2.853846 -19.675190 -50.017690 -21.895453 28.704648 38.762478 -4.915020 0.000000 0.000000 0.000000 0.000000 0.000000 0.000000 -6.151857 13.524945 34.659658 -6.342235 -12.271732 1.789874 74.328951 66.068666 -44.174834 0.000000 0.000000 0.000000 -1.429989 6.231351 40.671639 18.075691 -6.794898 4.608451 -14.202297 22.302084 1.843742 0.000000 0.000000 0.000000
18.490924 74.781023 321.896126 -8.748634 0.129557 -21.876542 -0.087370 0.136963 21.540897 0.166245 0.054719 -0.400949 22.056871 -19.716631 11.016527 0.000000 0.000000 0.000000 -7.983226 -18.295386 9.017101 11.784394 31.527427 -8.930687 -0.582396 1.581087 -0.039974 1.696480 3.529920 2.029073 0.000000 0.000000 0.000000 0.000000 0.000000 0.000000 -5.063900 7.378703 -2.205468 5.459095 1.215977 4.549563 -21.260607 -53.711546 -23.046765 27.817729 41.854195 -6.921904 0.000000 0.000000 0.000000 0.000000 0.000000 0.000000 -0.056582 18.146285 15.245876 -7.620081 -14.541769 2.163343 90.023907 67.401955 -60.731364 0.000000 0.000000 0.000000 -0.001934 5.575849 22.384817 19.095359 -6.513616 4.658092 -13.926838 24.168863 2.991017 0.000000 0.000000 0.000000
19.406287 74.557190 322.610476 -9.890104 -0.107420 -9.160230 -0.187643 0.106229 8.752706 0.173196 0.030669 -0.463707 25.000128 -20.397494 11.785561 0.000000 0.000000 0.000000 -5.801296 -21.936340 9.842798 9.034883 34.963441 -8.540469 2.037770 1.784670 0.000694 -2.547361 2.429154 1.847148 0.000000 0.000000 0.000000 0.000000 0.000000 0.000000 -9.061388 10.561844 -2.806441 7.215705 1.113509 6.311052 -22.461329 -55.621352 -21.419759 25.155311 44.889411 -8.998086 0.000000 0.000000 0.000000 0.000000 0.000000 0.000000 5.814618 20.720860 0.673257 -7.862273 -16.521319 2.820391 103.550772 61.887951 -90.373588 0.000000 0.000000 0.000000 0.608811 5.085813 9.340008 20.255055 -6.155976 4.766622 -14.406559 23.835540 3.885856 0.000000 0.000000 0.000000
19.858437 74.412365 323.195284 -10.901124 -0.428894 -1.333345 -0.327670 0.151823 0.851231 0.178914 0.031446 -0.519413 26.805908 -20.473449 12.085878 0.000000 0.000000 0.000000 -2.867048 -25.490254 10.662716 6.041077 37.318336 -7.958280 3.326196 2.382479 -0.038389 -3.648254 -2.261499 0.904458 0.000000 0.000000 0.000000 0.000000 0.000000 0.000000 -12.908927 14.343351 -2.475459 8.953126 0.210850 7.609452 -26.194696 -51.459479 -6.157647 36.092661 38.517798 -25.929985 0.000000 0.000000 0.000000 0.000000 0.000000 0.000000 10.839333 21.059856 -8.322994 -8.199639 -16.503771 3.051138 113.486024 54.791907 -111.848325 0.000000 0.000000 0.000000 1.191389 4.947467 1.300552 21.152433 -5.954500 4.908059 -15.735685 21.294415 4.584002 0.000000 0.000000 0.000000
